<?xml version="1.0" encoding="utf-8"?>
<!-- Generator: Adobe Illustrator 16.0.0, SVG Export Plug-In . SVG Version: 6.00 Build 0)  -->
<!DOCTYPE svg PUBLIC "-//W3C//DTD SVG 1.1//EN" "http://www.w3.org/Graphics/SVG/1.1/DTD/svg11.dtd">
<svg version="1.1" id="圖層_1" xmlns="http://www.w3.org/2000/svg" xmlns:xlink="http://www.w3.org/1999/xlink" x="0px" y="0px"
	 width="1024.7px" height="152px" viewBox="0 0 1024.7 152" enable-background="new 0 0 1024.7 152" xml:space="preserve">
<g>
	<path fill="#F2E17D" d="M38.694,67.611l44.853-45.973h23.21L54.665,73.805l52.391,63.063H83.771L42.276,85.597l-3.582,3.583v47.689
		H21.305V21.638h17.389V67.611z"/>
	<path fill="#91D0C9" d="M110.712,100c0-10.498,3.756-19.429,11.27-26.792c7.512-7.363,16.667-11.045,27.464-11.045
		c10.846,0,20.05,3.707,27.614,11.12c7.463,7.414,11.194,16.519,11.194,27.315c0,10.896-3.757,20.027-11.269,27.39
		c-7.563,7.313-16.842,10.971-27.837,10.971c-10.896,0-20.027-3.732-27.39-11.195C114.394,120.4,110.712,111.146,110.712,100z
		 M127.877,100.299c0,7.265,1.94,13.012,5.821,17.24c3.98,4.28,9.229,6.418,15.747,6.418c6.567,0,11.816-2.114,15.747-6.344
		c3.93-4.228,5.896-9.875,5.896-16.941c0-7.064-1.966-12.712-5.896-16.941c-3.981-4.278-9.229-6.418-15.747-6.418
		c-6.418,0-11.618,2.14-15.598,6.418C129.867,88.011,127.877,93.533,127.877,100.299z"/>
	<path fill="#F2E17D" d="M222.809,64.178v41.719c0,12.041,4.75,18.061,14.254,18.061c9.502,0,14.254-6.02,14.254-18.061V64.178
		h16.792v42.092c0,5.821-0.722,10.847-2.164,15.075c-1.394,3.782-3.806,7.19-7.239,10.225c-5.672,4.926-12.887,7.389-21.643,7.389
		c-8.708,0-15.896-2.463-21.568-7.389c-3.483-3.034-5.946-6.443-7.388-10.225c-1.394-3.383-2.09-8.407-2.09-15.075V64.178H222.809z"
		/>
	<path fill="#F2E17D" d="M307.216,16.638l14.926,5.821l-21.27,42.689l-11.344-4.702L307.216,16.638z"/>
	<path fill="#F2E17D" d="M383.638,76.566l-13.881,7.388c-2.19-4.478-4.901-6.717-8.135-6.717c-1.543,0-2.862,0.511-3.956,1.53
		c-1.095,1.02-1.642,2.326-1.642,3.918c0,2.787,3.234,5.548,9.702,8.284c8.906,3.832,14.9,7.364,17.986,10.598
		c3.084,3.235,4.627,7.588,4.627,13.06c0,7.016-2.588,12.887-7.762,17.613c-5.026,4.478-11.096,6.717-18.21,6.717
		c-12.19,0-20.822-5.945-25.897-17.837l14.329-6.642c1.989,3.483,3.508,5.697,4.553,6.642c2.04,1.892,4.478,2.836,7.313,2.836
		c5.672,0,8.508-2.586,8.508-7.762c0-2.985-2.19-5.771-6.568-8.358c-1.692-0.846-3.384-1.667-5.075-2.463
		c-1.692-0.795-3.409-1.616-5.149-2.463c-4.877-2.388-8.31-4.776-10.299-7.165c-2.537-3.034-3.806-6.941-3.806-11.717
		c0-6.318,2.165-11.542,6.493-15.672c4.428-4.129,9.801-6.194,16.12-6.194C372.194,62.163,379.11,66.965,383.638,76.566z"/>
	<path fill="#F2E17D" d="M471.18,90.075v46.793h-17.389V21.638h19.703c9.652,0,16.941,0.671,21.867,2.015
		c4.975,1.344,9.354,3.881,13.135,7.612c6.617,6.469,9.926,14.628,9.926,24.479c0,10.549-3.533,18.907-10.598,25.076
		c-7.065,6.17-16.594,9.254-28.583,9.254H471.18z M471.18,73.954h6.493c15.971,0,23.957-6.144,23.957-18.434
		c0-11.891-8.235-17.837-24.703-17.837h-5.747V73.954z"/>
	<path fill="#91D0C9" d="M525.288,100c0-10.498,3.756-19.429,11.27-26.792c7.512-7.363,16.667-11.045,27.463-11.045
		c10.847,0,20.051,3.707,27.614,11.12c7.463,7.414,11.194,16.519,11.194,27.315c0,10.896-3.757,20.027-11.27,27.39
		c-7.563,7.313-16.842,10.971-27.837,10.971c-10.896,0-20.027-3.732-27.39-11.195C528.969,120.4,525.288,111.146,525.288,100z
		 M542.453,100.299c0,7.265,1.94,13.012,5.821,17.24c3.98,4.28,9.229,6.418,15.747,6.418c6.568,0,11.816-2.114,15.748-6.344
		c3.93-4.228,5.896-9.875,5.896-16.941c0-7.064-1.966-12.712-5.896-16.941c-3.981-4.278-9.23-6.418-15.748-6.418
		c-6.418,0-11.617,2.14-15.597,6.418C544.442,88.011,542.453,93.533,542.453,100.299z"/>
	<path fill="#F2E17D" d="M620.592,64.178h16.792v6.493c3.084-3.233,5.821-5.448,8.209-6.642c2.438-1.243,5.323-1.866,8.657-1.866
		c4.428,0,9.055,1.444,13.882,4.329l-7.688,15.374c-3.185-2.288-6.294-3.433-9.328-3.433c-9.155,0-13.732,6.916-13.732,20.748
		v37.688h-16.792V64.178z"/>
	<path fill="#F2E17D" d="M700.596,79.85v57.018h-16.792V79.85h-7.165V64.178h7.165V37.534h16.792v26.644h13.061V79.85H700.596z"/>
	<path fill="#F2E17D" d="M742.464,79.85v57.018h-16.866V79.85h-5.971V64.178h5.971V36.116c0-9.154,1.592-15.622,4.776-19.404
		c4.378-5.273,10.747-7.911,19.105-7.911c2.985,0,6.741,0.871,11.27,2.612v17.165l-1.717-0.896c-3.633-1.84-6.617-2.761-8.956-2.761
		c-2.985,0-5,1.07-6.045,3.209c-1.045,2.09-1.567,6.12-1.567,12.09v23.957h18.285V79.85H742.464z"/>
	<path fill="#91D0C9" d="M768.884,100c0-10.498,3.756-19.429,11.269-26.792c7.513-7.363,16.667-11.045,27.465-11.045
		c10.846,0,20.05,3.707,27.613,11.12c7.463,7.414,11.194,16.519,11.194,27.315c0,10.896-3.757,20.027-11.27,27.39
		c-7.563,7.313-16.842,10.971-27.837,10.971c-10.896,0-20.026-3.732-27.39-11.195C772.564,120.4,768.884,111.146,768.884,100z
		 M786.049,100.299c0,7.265,1.94,13.012,5.821,17.24c3.979,4.28,9.229,6.418,15.747,6.418c6.567,0,11.815-2.114,15.747-6.344
		c3.93-4.228,5.896-9.875,5.896-16.941c0-7.064-1.966-12.712-5.896-16.941c-3.981-4.278-9.23-6.418-15.747-6.418
		c-6.419,0-11.618,2.14-15.599,6.418C788.038,88.011,786.049,93.533,786.049,100.299z"/>
	<path fill="#F2E17D" d="M880.979,10.816v126.052h-16.792V10.816H880.979z"/>
	<path fill="#F2E17D" d="M899.711,33.952c0-2.935,1.069-5.473,3.209-7.612c2.139-2.139,4.701-3.209,7.687-3.209
		c3.034,0,5.622,1.071,7.762,3.209c2.139,2.089,3.209,4.653,3.209,7.687c0,3.035-1.07,5.623-3.209,7.761
		c-2.09,2.14-4.652,3.209-7.687,3.209c-3.036,0-5.623-1.069-7.762-3.209C900.78,39.65,899.711,37.038,899.711,33.952z
		 M919.04,64.178v72.69h-16.792v-72.69H919.04z"/>
	<path fill="#91D0C9" d="M936.878,100c0-10.498,3.756-19.429,11.269-26.792c7.513-7.363,16.667-11.045,27.465-11.045
		c10.846,0,20.05,3.707,27.613,11.12c7.463,7.414,11.194,16.519,11.194,27.315c0,10.896-3.757,20.027-11.27,27.39
		c-7.563,7.313-16.842,10.971-27.837,10.971c-10.896,0-20.026-3.732-27.39-11.195C940.559,120.4,936.878,111.146,936.878,100z
		 M954.043,100.299c0,7.265,1.94,13.012,5.821,17.24c3.979,4.28,9.229,6.418,15.747,6.418c6.567,0,11.815-2.114,15.747-6.344
		c3.93-4.228,5.896-9.875,5.896-16.941c0-7.064-1.966-12.712-5.896-16.941c-3.981-4.278-9.23-6.418-15.747-6.418
		c-6.419,0-11.618,2.14-15.599,6.418C956.032,88.011,954.043,93.533,954.043,100.299z"/>
</g>
</svg>
